<svg xmlns="http://www.w3.org/2000/svg" viewBox="0 0 48 48" width="48" height="48">
  <!-- Purchase Bills: a receipt coming in -->
  <path fill="#C77522" d="M9 8a3 3 0 0 1 3-3h17l8 8v31l-3.5-2.2-3.5 2.2-3.5-2.2-3.5 2.2-3.5-2.2-3.5 2.2-3.5-2.2-3.5 2.2z"/>
  <path fill="#94530E" d="M29 5v5.5a2.5 2.5 0 0 0 2.5 2.5H37z"/>
  <g fill="none" stroke="#FFFFFF" stroke-width="2.4" stroke-linecap="round">
    <path d="M14 16h10M14 21.5h14M14 27h8"/>
  </g>
  <circle cx="35" cy="35" r="9.5" fill="#8A4A0B" stroke="#FFFFFF" stroke-width="2.5"/>
  <g fill="none" stroke="#FFFFFF" stroke-width="2.4" stroke-linecap="round" stroke-linejoin="round">
    <path d="M35 30.5v9M31 35.5l4 4 4-4"/>
  </g>
</svg>
